<svg version="1.2" xmlns="http://www.w3.org/2000/svg" viewBox="0 0 283 110" width="283" height="110"><defs><clipPath clipPathUnits="userSpaceOnUse" id="cp1"><path d="m-819-92h1920v2569h-1920z"/></clipPath></defs><style>.a{fill:#511f7f}.b{fill:#00885a}.c{fill:#2e002f}.d{fill:#ac104c}.e{fill:#f36a10}.f{fill:#005fae}.g{fill:#c4091e}.h{fill:#00348b}.i{fill:#003c50}.j{fill:#d44513}.k{fill:#003c3d}.l{fill:#1a1818}</style><g clip-path="url(#cp1)"><path class="a" d="m46 66.8h12.1q-2.7 10.1-10.1 15.4-7.5 5.6-18.8 5.6-13.8 0-21.5-8.9-7.7-8.7-7.7-24.8 0-15.5 7.5-24.1 7.7-9 21.4-9 14.5 0 22.4 8.7 4.4 5.3 6.3 12.3h-16.9q-1.2-2.4-2.4-3.6-3.1-3.4-8.9-3.4-5.3 0-8.7 3.4-4.3 4.8-4.3 15.9 0 11.1 4.3 15.7 3.1 3.8 9.4 3.8c2.8 0 5.1-0.5 7-1.7q0.7-0.2 1.3-0.8 0.6-0.6 1.4-1.3 0.4-0.8 1.9-2 1.4-1.2 4.3-1.2z"/><path class="b" d="m41.5 86.6v-31.1q0-9.4 2.7-15.8 2.8-6.4 7.6-10.2 4.6-3.6 10.7-5.3 6.2-1.7 12.7-1.7h2.4v17.1h-5.5q-7 0-10.4 3.4-3.4 3.3-3.4 10.6v33z"/><path class="c" d="m41.5 85.8v-17.6l0.2-0.2q1.4-1.2 4.3-1.2h12.1q-2.7 10.1-10.1 15.4-3 2.2-6.5 3.6zm1.9-43.8q0.4-1.2 0.8-2.3 2.7-6.1 7.2-9.9 4.3 5.3 6.2 12.2z"/><path fill-rule="evenodd" class="d" d="m102 84.1q-5 2.7-10.7 3.3-5.7 0.6-10 0.6-8.7 0-15.2-4.7-6.5-4.7-6.5-15.6 0-10.1 5.9-14.4c3.9-2.9 9-4.9 15.1-5.8q1.2 0 2.9-0.4 1.7-0.3 3.8-0.6 10.6-1.4 10.6-6.3 0-3.6-3.7-4.6-3.7-1.1-6.9-1.1-3.4 0-6 0.9c-1.8 0.7-2.9 2.4-3.7 4.2h-16.1c0.6-5 2.7-9.6 6.5-12.9 4.4-3.6 10.6-5.5 18.6-5.5q13.5 0 20.2 4.6 7 4.8 7 13.5v21.9q0 9.7-3.5 15.1-3.5 5.4-8.3 7.8zm-3.8-29.6c-2.3 1.1-5.4 2.1-9.4 3.1q-5.6 1.2-5.6 1.2-4.3 1.2-6.2 3.1-1.7 2.7-1.7 5.3 0 3.7 2.1 5.8 2.2 2 6.3 2 6.8 0 10.6-3.9 3.9-3.9 3.9-10.6z"/><path class="e" d="m107.6 109.3v-13.3h4.6q4.8 0 7.6-2.3 2.7-2.3 1.1-7.4l-22.5-63.8h18.6l13 45.3 11.3-39.5q1.5-5.8 7.7-5.8h11.6l-24.6 73q-2.9 8-7.2 11.3-4.3 2.9-14.2 2.9h-3.4q-0.7-0.2-1.8-0.3-1.1-0.1-1.8-0.1z"/><path fill-rule="evenodd" class="f" d="m151.9 80.8q-5-4.3-7.2-11.7-2.2-7.3-2.2-15.3 0-6.5 1.8-13 1.8-6.5 5.7-10.8 6.3-7.3 16.1-8.6 9.9-1.3 17.9 1.6 9.1 3.6 13.5 12.5 4.1 7.9 4.1 18.6 0 7.7-1.7 13.2-1.7 5.6-4.4 9.4-5.7 7.9-14.7 9.9-7.9 2.1-16 0.4-8.1-1.9-12.9-6.2zm11.6-42.4q-5.1 5.5-4.6 16.5 0.5 10.9 4.1 15.3 1.4 1.9 5.1 3.2 3.6 1.4 7.3 0.3 3.7-1.1 6.6-5.4 2.9-4.4 3.2-14 0-8.7-2.8-13-2.8-4.4-6.4-5.6-3.6-1.2-7.2-0.1-3.6 1.1-5.3 2.8z"/><path class="g" d="m242.1 86.6h-8.4c-2.5 0-4.4-0.8-6-2.3q-2.3-2.3-2.2-5.9v-32.8q-0.1-5.8-3.5-8.4-3.5-2.7-7.9-2.7-4.3 0-7.7 2.7-3.4 2.6-3.4 8.4v41h-16.8v-37.6q0-16.4 8.5-21.9 8.6-5.6 18.9-6 10.7 0 19.6 5.5 8.9 5.5 8.9 22.4z"/><path class="h" d="m225.5 65.4h16.6c0.1 3.2 1 5.7 3.2 7.2 2.4 1.7 5.7 2.4 9.7 2.4q4.3 0 7.4-1.7 2.9-1.6 2.9-4.5 0-4.4-10.1-6.5c-2.9-0.5-5-1-6.5-1.5q-12.8-3.1-17.1-7.5-4.8-4.3-4.8-11.5 0-9.2 7-15.2 7.2-5.6 18.8-5.6 12.5 0 20 5.6 7 6 7.4 15.6h-10.3q-4.6 0-7-4.1-1-0.9-1.9-1.9-2.9-2.2-8-2.2-4.8 0-7.2 1.5-2.2 1.4-2.2 4.3 0 3.9 12.5 6.5 1.5 0.5 2.6 0.8 1 0.2 2 0.2c8.2 2.1 13.9 4.5 17.1 7.2q4.6 4.4 4.6 11.6 0 10.6-7.7 16.4-7.2 5.3-21.7 5.3c-9.2 0-15.9-1.9-20.5-5.6-4.6-3.7-6.8-9-6.8-16.1z"/><path class="i" d="m76.3 22.5h1.3v17 0.1h-16.1c0.6-5 2.7-9.6 6.6-12.9q3.3-2.8 8.2-4.2z"/><path class="j" d="m113.6 65.7l-15.2-43.2h0.6q4.7 1.1 7.8 3.3 7 4.8 7 13.5v21.9q0 2.4-0.2 4.5z"/><path class="k" d="m160.5 22.7l-15.7 46.8-0.1-0.4q-2.2-7.3-2.2-15.3 0-6.5 1.8-13 1.8-6.5 5.7-10.9 4.4-5 10.5-7.2z"/><path class="c" d="m192.7 28.7q2.8 2.9 4.8 6.8 4.1 7.9 4.1 18.6 0 7.7-1.7 13.2-1.7 5.6-4.4 9.4-3.9 5.4-9.3 8.1v-35.8q0-14.3 6.5-20.3z"/><path class="c" d="m242.1 86.6h-0.5q-5.6-1.4-9.3-4.4c-4.6-3.7-6.8-9-6.8-16.1v-0.7h16.6v0.2zm-8.6-59.7q8.6 5.6 8.6 22.1v10q-7.4-2.5-10.5-5.6-4.8-4.4-4.8-11.6 0-9 6.7-14.9z"/><path fill-rule="evenodd" class="l" d="m205.1 96.8l7.3 7.1q0.7 0.7 1.3 1.4v-8h1.7v12l-7.5-7.2q-0.6-0.6-1.1-1.3v8.1h-1.7zm13 0.4h6.5v1.6h-4.6v2.9h4.6v1.7h-4.6v3.7h4.6v1.7h-6.5zm12.4 11.6h-1.9v-10h-3.1v-1.6h8v1.6h-3zm5-11.6l2.1 5.9q0.4 0.9 0.7 1.8c0.3-1.1 0.5-1.7 0.6-1.9l2.3-6.2 2.5 6.3q0.3 0.8 0.6 1.8 0.2-0.8 0.6-1.8l2.1-5.9h1.9l-4.5 12.1-2.6-6.6q-0.4-0.9-0.6-1.7-0.2 0.9-0.5 1.7l-2.6 6.6-4.5-12.1zm24.8 10.2c-1.2 1.1-2.7 1.7-4.4 1.7-1.6 0-3.2-0.6-4.4-1.7-1.2-1.2-1.8-2.7-1.8-4.3 0-1.7 0.6-3.2 1.8-4.4 1.2-1.1 2.7-1.7 4.4-1.7 1.7 0 3.2 0.6 4.4 1.7 1.2 1.2 1.8 2.7 1.8 4.4 0 1.6-0.6 3.1-1.8 4.3zm-1.4-7.4c-0.8-0.9-1.9-1.3-3-1.3-1.1 0-2.2 0.4-3 1.3-0.8 0.8-1.2 1.9-1.2 3.1 0 1.1 0.4 2.2 1.2 3 0.8 0.8 1.9 1.3 3 1.3 1.2 0 2.2-0.5 3-1.3 0.8-0.8 1.2-1.9 1.2-3 0-1.2-0.4-2.3-1.2-3.1zm7.1 8.8h-1.7v-11.6h2.6c1.2 0 2.2 0.1 2.9 0.7 0.7 0.5 1.1 1.4 1.1 2.5 0 1.9-0.9 2.9-2.7 3.2l4 5.2h-2.1l-3.9-5.2h-0.2zm0.5-6.6c1.6 0 2.5-0.2 2.5-1.6 0-1.4-0.8-1.7-2.5-1.7h-0.4v3.3zm6.9-5h1.9v4.8l4.1-4.8h2.3l-4.5 5.2 5.1 6.4h-2.4l-4.6-5.9v5.9h-1.9z"/><path class="l" d="m5 11.9h-1.9v-10h-3.1v-1.6h8v1.6h-3zm4.5-11.6h1.8v4.3h5.8v-4.3h1.8v11.6h-1.8v-5.6h-5.8v5.6h-1.8zm12.1 0h6.5v1.6h-4.6v2.9h4.6v1.6h-4.6v3.8h4.6v1.7h-6.5z"/></g></svg>