<svg width="129" height="130" viewBox="0 0 129 130" fill="none" xmlns="http://www.w3.org/2000/svg">
<path d="M86.404 68.6121L54.2987 88.6787C53.648 89.0841 52.9093 89.2867 52.172 89.2867C51.5013 89.2867 50.8307 89.1214 50.2253 88.7841C48.9493 88.0761 48.1573 86.7347 48.1573 85.2747V45.1427C48.1573 43.6827 48.9493 42.3387 50.2253 41.6321C51.5 40.9214 53.0613 40.9654 54.2987 41.7387L86.404 61.8054C87.5773 62.5401 88.2907 63.8254 88.2907 65.2094C88.2907 66.5921 87.5773 67.8774 86.404 68.6121ZM64.2107 0.998714C28.748 0.998714 0 29.7454 0 65.2094C0 100.672 28.748 129.421 64.2107 129.421C99.6733 129.421 128.421 100.672 128.421 65.2094C128.421 29.7454 99.6733 0.998714 64.2107 0.998714" fill="white"/>
</svg>
